<?xml version="1.0" standalone="no"?>
<!DOCTYPE svg PUBLIC "-//W3C//DTD SVG 20010904//EN"
 "http://www.w3.org/TR/2001/REC-SVG-20010904/DTD/svg10.dtd">
<svg version="1.0" xmlns="http://www.w3.org/2000/svg"
 width="300.000000pt" height="300.000000pt" viewBox="0 0 300.000000 300.000000"
 preserveAspectRatio="xMidYMid meet">
<metadata>
Created by potrace 1.10, written by Peter Selinger 2001-2011
</metadata>
<g transform="translate(0.000000,300.000000) scale(0.100000,-0.100000)"
fill="#000000" stroke="none">
<path d="M1393 2583 c-65 -33 -75 -44 -112 -116 -28 -55 -31 -70 -28 -132 4
-86 29 -137 93 -192 102 -89 252 -82 349 16 131 133 94 340 -77 426 -68 34
-154 33 -225 -2z m200 -19 c108 -37 175 -171 141 -281 -34 -109 -136 -181
-240 -170 -91 9 -151 51 -193 134 -32 64 -25 165 17 229 59 93 164 126 275 88z"/>
<path d="M1472 2490 c-24 -20 -28 -40 -17 -75 5 -16 0 -23 -24 -32 -48 -18
-56 -88 -11 -100 11 -3 20 -10 20 -15 0 -5 3 -7 8 -4 4 2 6 -13 4 -35 -5 -49
11 -69 53 -69 45 0 69 29 62 75 -3 19 -2 35 4 35 21 0 25 2 47 22 27 27 28 48
2 76 -19 20 -40 27 -65 22 -5 -1 -4 4 3 11 20 22 15 76 -10 93 -29 21 -48 20
-76 -4z m62 -13 c29 -21 17 -61 -18 -65 -43 -5 -61 32 -30 62 19 19 25 20 48
3z m76 -147 l0 -30 -100 0 -100 0 0 30 0 30 100 0 100 0 0 -30z m-70 -85 c26
-32 -13 -81 -47 -59 -35 22 -23 74 17 74 10 0 23 -7 30 -15z"/>
<path d="M828 2474 c-4 -3 -14 -7 -25 -9 -10 -2 -19 -4 -20 -5 -2 -2 -6 -3
-10 -4 -56 -12 -126 -94 -151 -176 -12 -37 -4 -137 12 -173 62 -128 217 -188
342 -130 84 38 131 97 154 189 38 152 -96 314 -261 314 -20 0 -38 -3 -41 -6z
m114 -38 c99 -29 163 -112 161 -209 0 -29 -3 -59 -5 -67 -21 -67 -57 -113
-115 -147 -38 -22 -58 -27 -108 -26 -91 1 -156 39 -206 120 -36 57 -34 161 4
224 36 61 54 76 118 99 65 23 91 24 151 6z"/>
<path d="M826 2367 c-9 -7 -18 -24 -20 -38 -3 -36 -14 -49 -39 -49 -29 0 -57
-33 -57 -68 0 -29 40 -62 74 -62 9 0 16 -3 17 -7 6 -62 30 -93 71 -93 35 0 68
32 68 65 0 26 4 29 51 39 26 6 49 41 49 75 0 21 -35 48 -70 53 -18 2 -26 11
-31 35 -3 18 -12 40 -19 48 -15 18 -70 20 -94 2z m86 -63 l-4 -56 51 3 51 4 0
-37 0 -38 -51 0 -52 0 7 -50 7 -50 -46 0 -45 0 0 50 0 50 -45 0 -45 0 0 38 0
37 45 -3 45 -4 0 56 0 56 43 0 42 0 -3 -56z"/>
<path d="M2058 2465 c-27 -9 -48 -20 -48 -25 0 -6 -5 -10 -11 -10 -25 0 -91
-89 -106 -143 -13 -47 -5 -143 16 -183 64 -123 196 -177 328 -133 42 14 130
92 146 129 18 44 20 54 20 120 0 85 -6 104 -45 155 -68 88 -191 125 -300 90z
m188 -39 c52 -24 114 -88 114 -118 0 -9 5 -20 10 -23 15 -9 12 -108 -5 -148
-38 -91 -124 -149 -224 -150 -88 0 -152 40 -200 126 -32 58 -37 110 -15 175
45 135 192 198 320 138z"/>
<path d="M2041 2333 c-38 -26 -44 -50 -21 -82 24 -35 25 -47 5 -67 -26 -27
-19 -70 17 -98 l32 -25 33 25 c39 29 41 29 77 -1 27 -22 32 -23 58 -9 15 8 32
23 38 34 13 24 3 67 -19 79 -14 9 -14 14 8 54 28 51 20 77 -28 97 -27 11 -35
9 -66 -10 -32 -20 -38 -21 -53 -8 -26 23 -59 27 -81 11z m228 -41 c3 -1 -13
-20 -34 -42 l-39 -40 39 -35 39 -34 -24 -28 c-14 -15 -26 -30 -27 -31 -1 -2
-19 15 -39 38 l-39 42 -36 -40 -36 -41 -26 27 -27 26 37 38 37 38 -37 38 -37
38 26 23 26 23 38 -37 38 -37 33 41 33 41 25 -22 c14 -13 28 -24 30 -26z"/>
<path d="M598 1814 c-5 -4 -8 -42 -8 -85 l0 -77 -74 2 c-41 0 -77 -2 -80 -5
-7 -7 -9 -987 -1 -998 3 -5 84 -9 180 -9 96 -1 178 -3 183 -6 4 -2 31 -7 58
-10 174 -20 516 -151 605 -231 22 -19 41 -35 43 -35 2 0 26 18 52 41 72 60
252 143 385 178 166 43 243 53 444 58 122 3 182 8 187 16 11 18 9 969 -2 987
-7 11 -28 15 -84 15 l-75 -1 -3 81 -3 80 -83 -2 c-230 -4 -552 -155 -742 -347
l-74 -75 -91 88 c-156 151 -366 272 -540 311 -27 7 -59 14 -70 17 -39 9 -200
15 -207 7z m168 -69 c239 -42 426 -139 611 -318 l93 -90 0 -410 0 -410 -52 49
c-83 77 -143 117 -278 182 -127 61 -304 114 -430 128 l-55 6 0 439 c0 317 3
439 11 439 6 0 51 -7 100 -15z m1583 -424 l-2 -438 -78 -12 c-277 -42 -520
-152 -695 -313 l-44 -41 0 406 0 405 76 77 c170 170 391 288 624 334 30 6 64
13 75 15 11 2 26 4 33 5 10 1 13 -83 11 -438z m-1759 -103 c0 -205 4 -378 8
-384 4 -7 39 -15 77 -18 192 -19 426 -100 579 -202 84 -57 130 -83 134 -79 2
2 19 -5 37 -15 30 -17 35 -17 55 -3 19 14 23 13 40 -2 18 -16 21 -16 52 2 18
10 39 24 46 31 16 15 26 16 17 2 -11 -18 2 -11 107 59 161 108 351 177 558
202 52 6 98 13 103 16 4 2 7 175 7 384 l0 379 55 0 55 0 0 -442 0 -443 -123
-2 c-163 -3 -293 -19 -418 -49 -150 -36 -362 -125 -327 -136 13 -5 -62 -58
-82 -58 -5 0 -10 -4 -10 -8 0 -4 -12 -15 -27 -24 -26 -14 -52 -14 -63 2 -11
15 -88 59 -94 53 -3 -4 -7 -1 -7 5 -1 7 -2 17 -3 24 -2 16 -46 39 -171 85
-195 73 -340 101 -563 109 l-142 5 -3 439 -2 440 53 0 52 0 0 -372z"/>
</g>
</svg>
